<svg xmlns="http://www.w3.org/2000/svg" viewBox="0 0 128 128"><path fill="#5B4282" d="M75.7 65.603C73.368 64.835 70.008 65 65.62 65H48v23h18.844c2.944 0 5.012-.315 6.203-.535 2.1-.376 3.854-1.104 5.264-1.982 1.41-.876 2.57-2.205 3.48-3.88.907-1.677 1.362-3.638 1.362-5.83 0-2.57-.658-4.54-1.975-6.437-1.316-1.896-3.14-2.965-5.476-3.733zm-2.418-10.516c2.317-.688 4.064-1.89 5.24-3.487 1.175-1.598 1.762-3.63 1.762-6.044 0-2.286-.55-4.314-1.646-6.054s-2.662-2.413-4.7-3.056c-2.036-.64-5.53-.446-10.48-.446H48v20h16.587c4.042 0 6.94-.38 8.695-.913zM126 18.625C126 9.443 118.557 2 109.375 2h-91.75C8.443 2 1 9.443 1 18.625v91.75C1 119.557 8.443 127 17.625 127h91.75c9.182 0 16.625-7.443 16.625-16.625v-91.75zm-35.447 66.12c-1.362 2.773-3.047 4.91-5.052 6.415-2.005 1.504-4.52 2.78-7.543 3.548C74.935 95.478 71.23 96 66.844 96H39V27h27.42c5.264 0 9.485.61 12.665 2.002 3.18 1.395 5.67 3.497 7.474 6.395 1.8 2.898 2.7 5.907 2.7 9.07 0 2.946-.8 5.71-2.396 8.31-1.598 2.6-4.01 4.693-7.237 6.29 4.166 1.223 7.37 3.305 9.61 6.25 2.24 2.944 3.36 6.42 3.36 10.43 0 3.228-.68 6.226-2.044 8.998z"/></svg>