<svg xmlns="http://www.w3.org/2000/svg" viewBox="0 0 128 128"><path fill="#F0DB4F" d="M2 1v125h125V1H2zm66.12 106.513c-1.846 3.75-5.368 6.212-9.45 7.4-6.27 1.44-12.268.62-16.73-2.058-2.986-1.832-5.318-4.652-6.9-7.9l9.52-5.83c.082.034.332.486.666 1.07 1.214 2.034 2.26 3.474 4.32 4.485 2.02.69 6.46 1.13 8.174-2.427 1.047-1.81.714-7.628.714-14.065 0-10.115.046-20.188.046-30.188h11.71c0 11 .06 21.418 0 32.152.024 6.58.595 12.446-2.07 17.36zm48.573-3.308c-4.07 13.922-26.762 14.374-35.83 5.176-1.916-2.164-3.117-3.295-4.26-5.794 4.82-2.772 4.82-2.772 9.508-5.485 2.548 3.916 4.903 6.07 9.14 6.95 5.748.702 11.53-1.273 10.234-7.378-1.333-4.986-11.77-6.2-18.873-11.53-7.21-4.844-8.9-16.612-2.974-23.336 1.975-2.487 5.343-4.343 8.877-5.235l3.688-.476c7.082-.143 11.508 1.727 14.757 5.355.904.915 1.642 1.903 3.022 4.044-3.773 2.404-3.76 2.38-9.164 5.88-1.154-2.487-3.07-4.047-5.093-4.725-3.142-.953-7.104.082-7.926 3.402-.285 1.023-.226 1.975.227 3.665 1.273 2.903 5.545 4.165 9.377 5.926 11.032 4.474 14.757 9.27 15.673 14.98.882 4.917-.213 8.106-.38 8.582z"/></svg>