<svg xmlns="http://www.w3.org/2000/svg" viewBox="0 0 128 128"><path fill="#00618A" d="M125.477 122.783l-2.616-2.537c-2.478-3.292-5.667-6.184-9.014-8.585-2.67-1.915-8.66-4.503-9.775-7.608l-.204-.195c1.893-.214 4.103-.898 5.85-1.367 2.934-.786 5.356-.583 8.386-1.365 1.366-.39 2.9-.78 3.9-1.17v-.78c-1-1.572-2.428-3.652-4.098-5.074-4.37-3.72-9.04-7.436-13.95-10.536-2.724-1.718-6.042-2.835-8.927-4.292-.97-.49-2.652-.746-3.294-1.562-1.517-1.932-2.328-4.382-3.498-6.633-2.45-4.717-4.85-9.868-7.02-14.83-1.48-3.385-2.442-6.72-4.288-9.757-8.86-14.567-18.395-23.358-33.167-32-3.145-1.838-6.93-2.563-10.93-3.513l-6.436-.39c-1.31-.547-2.674-2.15-3.902-2.928-4.896-3.093-17.45-9.818-21.074-.976-2.29 5.58 3.42 11.025 5.462 13.854 1.435 1.982 3.27 4.207 4.293 6.438.675 1.467.79 2.938 1.367 4.49 1.418 3.82 2.65 7.98 4.487 11.51.927 1.788 1.95 3.67 3.122 5.268.717.98 1.95 1.413 2.144 2.927-1.204 1.687-1.273 4.305-1.95 6.44-3.05 9.616-1.898 21.568 2.537 28.684 1.36 2.186 4.567 6.87 8.976 5.073 3.856-1.57 3.226-6.438 4.33-10.732.248-.972-.186-1.688.814-2.34v.194c1 2.34 2.11 4.682 3.282 7.023 2.6 4.187 6.89 8.562 10.798 11.514 2.027 1.53 3.92 4.177 5.92 5.073v-.1h.22c-.506-1-1.3-1.168-1.95-1.805-1.526-1.496-3.225-3.382-4.486-5.097-3.556-4.827-6.698-10.122-9.56-15.622-1.37-2.626-2.558-5.53-3.71-8.2-.443-1.03-.438-2.593-1.364-3.126-1.263 1.958-3.122 3.54-4.1 5.853-1.56 3.696-1.76 8.204-2.34 12.877-.343.122-.19.038-.39.194-2.72-.655-3.673-3.452-4.684-5.853-2.555-6.07-3.03-15.842-.78-22.828.58-1.81 3.21-7.5 2.145-9.172-.507-1.665-2.183-2.63-3.12-3.903-1.16-1.574-2.32-3.646-3.123-5.464-2.09-4.73-3.066-10.044-5.268-14.828-1.054-2.287-2.833-4.602-4.294-6.634-1.617-2.252-3.43-3.91-4.684-6.634-.445-.968-1.05-2.518-.39-3.513.21-.67.507-.95 1.17-1.17 1.134-.873 4.284.29 5.464.78 3.13 1.3 5.74 2.5 8.392 4.255 1.27.844 2.56 1.89 4.097 2.89H26c2.748 0 5.825.232 8.392 1.012 4.535 1.38 8.6 3.542 12.292 5.873 11.246 7.102 20.44 17.22 26.732 29.278 1.012 1.943 1.45 3.8 2.34 5.86 1.8 4.152 4.065 8.427 5.854 12.488 1.786 4.053 3.526 8.142 6.05 11.514 1.327 1.772 6.45 2.724 8.78 3.71 1.633.688 4.308 1.408 5.854 2.34 2.953 1.78 5.814 3.903 8.586 5.854 1.384.974 5.64 3.114 5.853 4.878-6.863-.188-12.104.452-16.585 2.34-1.273.538-3.305.553-3.513 2.148.7.733.81 1.83 1.365 2.73 1.07 1.73 2.876 4.053 4.488 5.27 1.762 1.33 3.576 2.75 5.464 3.9 3.36 2.048 7.107 3.218 10.34 5.27 1.907 1.21 3.96 2.732 5.816 4.096.92.675.89 1.724 2.89 2.147v-.194c-.998-.794-.945-1.892-1.52-2.727zM29.514 23.465c-1.43-.027-2.514.157-3.514.39V24h.198c.683 1 1.888 2.33 2.73 3.538l1.953 4.108.194-.187c1.21-.854 1.763-2.212 1.756-4.292-.483-.51-.556-1.146-.974-1.754-.558-.81-1.64-1.268-2.342-1.95z"/></svg>