<svg xmlns="http://www.w3.org/2000/svg" viewBox="0 0 128 128"><path fill-rule="evenodd" clip-rule="evenodd" fill="#CB6699" d="M1.22 56.156c0 .703.206 1.167.322 1.618.756 2.933 2.38 5.45 4.31 7.746 2.745 3.272 6.108 5.906 9.553 8.383 2.988 2.148 6.037 4.248 9.037 6.38.515.366 1.002.787 1.56 1.236-.48.26-.88.488-1.296.7-3.96 2.007-7.768 4.258-11.28 6.985-2.115 1.644-4.16 3.39-5.606 5.674-2.325 3.67-3.148 7.583-1.415 11.76.506 1.22 1.278 2.274 2.367 3.053.353.252.75.502 1.162.6 1.058.25 2.136.412 3.207.61l3.034-.003c3.354-.3 6.407-1.448 9.166-3.352 4.312-2.976 7.217-6.966 8.466-12.087.908-3.72.945-7.447-.125-11.152-.098-.344-.223-.68-.353-1.014-.13-.333-.283-.657-.463-1.072l6.876-3.954.103.088c-.125.41-.258.817-.37 1.23-.818 2.984-1.36 6.02-1.166 9.117.208 3.3 1.13 6.39 3.06 9.146 1.563 2.23 5.285 2.312 6.945.074.59-.795 1.16-1.626 1.59-2.513 1.12-2.314 2.158-4.67 3.23-7.01l.186-.428c-.077 1.108-.167 2.08-.208 3.055-.064 1.52.025 3.033.545 4.48.445 1.238 1.202 2.163 2.62 2.326.97.11 1.743-.333 2.456-.896 1.115-.88 2.02-1.965 2.692-3.2 1.9-3.49 3.853-6.96 5.576-10.54 1.864-3.87 3.494-7.854 5.225-11.79l.286-.7c.408 1.608.693 3.182 1.218 4.672.61 1.728 1.365 3.416 2.187 5.057.39.775.344 1.278-.195 1.928-2.256 2.72-4.473 5.473-6.692 8.223-.49.607-.98 1.225-1.39 1.888-.246.403-.41.894-.48 1.364-.132.898.423 1.764 1.384 1.97.878.19 1.813.26 2.708.194 3.097-.228 5.91-1.315 8.395-3.157 3.22-2.386 4.255-5.642 3.475-9.5-.21-1.048-.584-2.066-.947-3.075-.163-.455-.174-.774.123-1.198 2.575-3.677 4.775-7.578 6.82-11.57.082-.156.165-.313.307-.48.663 3.45 1.66 6.774 3.45 9.79-.913.88-1.816 1.677-2.633 2.555-1.8 1.933-3.36 4.033-4.173 6.594-.35 1.104-.62 2.226-.463 3.405.242 1.83 1.742 3.02 3.543 2.603 3.854-.892 7.18-2.708 9.612-5.925 1.635-2.166 1.784-4.582 1.1-7.113-.19-.688-.412-1.365-.652-2.154.95-.294 1.878-.648 2.837-.867 4.98-1.136 9.904-.938 14.702.86 2.8 1.05 5.064 2.807 6.406 5.57 1.64 3.38.733 6.586-2.452 8.722-.296.2-.636.356-.882.605-.15.153-.242.46-.205.67.02.123.346.277.533.275 1.047-.008 1.896-.557 2.71-1.12 2.043-1.414 3.533-3.315 3.854-5.818l.063-.188-.077-1.63c-.03-.095.023-.188.016-.26-.434-3.644-2.38-6.47-5.213-8.687-3.28-2.565-7.154-3.62-11.25-3.788-3.338-.136-6.62.36-9.765 1.503-.897.325-1.786.71-2.688 1.073-.12-.218-.25-.428-.358-.645-.927-1.896-2.05-3.708-2.297-5.882-.176-1.544-.392-3.086-.025-4.613.353-1.47.813-2.913 1.246-4.362.223-.746.066-1.164-.646-1.5-.248-.117-.518-.22-.786-.258-1.75-.254-3.476-.11-5.17.384-.6.175-1.037.51-1.17 1.175-.076.38-.23.745-.34 1.12-.442 1.564-.756 3.157-1.472 4.646-1.794 3.735-3.842 7.33-5.938 10.897-.227.385-.466.763-.752 1.23-.736-1.54-1.52-2.922-1.76-4.542-.268-1.83-.48-3.66-.024-5.478.34-1.356.782-2.687 1.19-4.025.193-.636.104-.97-.472-1.305-.29-.17-.62-.32-.948-.368-1.815-.27-3.603-.128-5.354.438-.543.176-.828.527-.994 1.087-.488 1.65-.904 3.343-1.59 4.914-2.773 6.36-5.627 12.687-8.478 19.013-.595 1.32-1.292 2.596-1.963 3.882-.17.325-.418.612-.63.918-.17-.2-.236-.34-.235-.477.005-.812-.092-1.65.063-2.435.47-2.378 1.01-4.743 1.578-7.1.47-1.945 1.017-3.873 1.538-5.806.176-.648.18-1.253-.286-1.797-.78-.91-2.413-1.11-3.38-.41l-.43.243.084-.69c.204-1.48.245-2.953-.16-4.41-.507-1.816-1.803-2.86-3.687-2.803-.877.027-1.8.177-2.612.497-3.42 1.34-6.048 3.713-8.286 6.568-.203.26-.47.495-.757.654-2.893 1.604-5.795 3.188-8.696 4.778l-3.23 1.77c-.866-.827-1.653-1.684-2.546-2.41-2.727-2.225-5.498-4.394-8.244-6.593-2.434-1.95-4.792-3.98-6.596-6.56-1.342-1.92-2.207-4.02-2.29-6.395-.105-3.025.753-5.79 2.293-8.362 1.97-3.292 4.657-5.934 7.61-8.327 3.126-2.53 6.506-4.678 10.01-6.64 4.9-2.742 9.94-5.17 15.346-6.773 5.542-1.644 11.165-2.585 16.965-1.93 2.28.26 4.494.78 6.527 1.896 1.557.853 2.834 1.97 3.428 3.716.586 1.718.568 3.46.162 5.204-.825 3.534-2.76 6.447-5.195 9.05-3.994 4.267-8.866 7.172-14.35 9.09-3.166 1.108-6.422 1.803-9.766 2.084-2.73.23-5.4-.013-7.985-.962-1.712-.63-3.202-1.59-4.4-2.987-.214-.25-.488-.52-.887-.286-.39.23-.46.602-.33.98.22.625.422 1.277.763 1.837.857 1.406 2.107 2.425 3.483 3.3 2.642 1.68 5.596 2.245 8.66 2.376 4.647.2 9.182-.493 13.653-1.74 6.383-1.78 11.933-4.924 16.384-9.884 3.706-4.13 6.353-8.79 6.92-14.42.277-2.746-.018-5.437-1.304-7.943-1.395-2.716-3.613-4.735-6.265-6.126C68.756 18.18 64.588 17 60.286 17h-4.31c-5.21 0-10.247 1.493-15.143 3.274-3.706 1.35-7.34 2.94-10.868 4.703-7.683 3.84-14.838 8.468-20.715 14.833-2.928 3.17-5.407 6.67-6.833 10.79-.417 1.206-.813 2.5-1.11 3.746M29.144 90.36c-.333 4.458-2.354 8.073-5.657 11-1.858 1.647-3.99 2.82-6.47 3.23-.9.15-1.822.186-2.695-.187-1.245-.532-1.524-1.637-1.548-2.814-.037-1.877.62-3.573 1.52-5.187 1.177-2.104 2.9-3.708 4.742-5.206 2.9-2.36 6.046-4.36 9.268-6.245l.243-.1c.498 1.84.735 3.657.597 5.507zm25.158-19.38c-.235 1.424-.53 2.85-.945 4.23-1.438 4.776-3.285 9.405-5.282 13.972-.37.845-.906 1.616-1.373 2.417-.072.123-.18.23-.283.333-.578.57-1.126.54-1.418-.206-.34-.868-.55-1.797-.73-2.716-.12-.616-.09-1.264-.13-1.896.04-4.494 1.41-8.578 3.737-12.38.958-1.568 2.002-3.062 3.597-4.054.49-.305 1.04-.55 1.595-.706.85-.24 1.372.154 1.23 1.006zm17.164 21.868l6.17-7.203c.256 2.675-4.29 8.015-6.17 7.203zM91.17 88c-.436.25-.91.43-1.358.662-.41.212-.544-.002-.556-.354-.008-.24.027-.49.093-.72.832-2.94 2.365-5.447 4.646-7.487l.16-.08c1.085 3.034-.17 6.367-2.986 7.98z"/></svg>